<svg id="Layer_1" data-name="Layer 1" xmlns="http://www.w3.org/2000/svg" width="308.77" height="276.7" viewBox="0 0 308.77 276.7"><polygon points="1 275.69 134.62 18.41 268.18 218.78 1 275.69" fill="#9ee8e0"/><polygon points="1 275.69 57.4 218.78 268.18 218.78 211.09 275.69 1 275.69" fill="#7ee0db"/><polyline points="233.78 233.81 242.26 225.32 248.16 238.14" fill="none" stroke="#e84846" stroke-miterlimit="10" stroke-width="2"/><polyline points="1.4 274.79 57.4 218.78 267.41 218.78" fill="none" stroke="#03a6a0" stroke-linecap="round" stroke-miterlimit="10" stroke-width="2" stroke-dasharray="3 5"/><line x1="134.62" y1="26.42" x2="134.62" y2="247.39" fill="none" stroke="#545454" stroke-linecap="round" stroke-miterlimit="10" stroke-width="2" stroke-dasharray="3 5"/><path d="M22.73,136.16H21.35V131.5a7,7,0,0,0-.07-1.05,1.89,1.89,0,0,0-.24-.78,1.12,1.12,0,0,0-.53-.45,2.23,2.23,0,0,0-.89-.15,2.92,2.92,0,0,0-1.18.27,6.84,6.84,0,0,0-1.18.71v6.11H15.89V124.77h1.37v4.12a5.67,5.67,0,0,1,1.33-.84,3.55,3.55,0,0,1,1.42-.3,2.54,2.54,0,0,1,2,.8,3.42,3.42,0,0,1,.7,2.3Z" fill="#202020"/><path d="M32.23,132.21h-6a3.51,3.51,0,0,0,.22,1.32,2.55,2.55,0,0,0,.63.92,2.52,2.52,0,0,0,.9.53,3.87,3.87,0,0,0,1.16.17,4.64,4.64,0,0,0,1.68-.33,4,4,0,0,0,1.2-.66h.07v1.5a11.36,11.36,0,0,1-1.42.5,5.81,5.81,0,0,1-1.52.19,4.36,4.36,0,0,1-3.18-1.1,4.15,4.15,0,0,1-1.14-3.13,4.51,4.51,0,0,1,1.09-3.19,3.77,3.77,0,0,1,2.89-1.18,3.33,3.33,0,0,1,2.55,1,3.89,3.89,0,0,1,.9,2.75Zm-1.34-1.05a2.48,2.48,0,0,0-.55-1.68,2.13,2.13,0,0,0-1.64-.59,2.4,2.4,0,0,0-1.76.65,2.55,2.55,0,0,0-.74,1.62Z" fill="#202020"/><path d="M35.79,126.61H34.24v-1.43h1.55Zm-.09,9.55H34.33V128H35.7Z" fill="#202020"/><path d="M45.06,135.23a4.26,4.26,0,0,1-.94,3.06,3.89,3.89,0,0,1-2.91,1,8.83,8.83,0,0,1-1.27-.09,10.18,10.18,0,0,1-1.22-.26V137.5h.07a10.94,10.94,0,0,0,1.08.33,5.57,5.57,0,0,0,1.46.19,3.19,3.19,0,0,0,1.16-.17,1.63,1.63,0,0,0,.72-.46,1.77,1.77,0,0,0,.37-.69,3.58,3.58,0,0,0,.11-.9v-.75a5.31,5.31,0,0,1-1.19.74,3.56,3.56,0,0,1-1.45.25A2.81,2.81,0,0,1,38.73,135a4.58,4.58,0,0,1-.86-3,5,5,0,0,1,.29-1.82,4.24,4.24,0,0,1,.81-1.33,3.54,3.54,0,0,1,2.51-1.1,4,4,0,0,1,1.19.15,5.33,5.33,0,0,1,1,.43l.09-.35h1.28Zm-1.37-1.32v-4.46a5.9,5.9,0,0,0-1-.35,4.4,4.4,0,0,0-1-.11,2.24,2.24,0,0,0-1.78.76,3.31,3.31,0,0,0-.65,2.22,3.72,3.72,0,0,0,.48,2.08,1.78,1.78,0,0,0,1.6.71,3.25,3.25,0,0,0,1.21-.23A4.32,4.32,0,0,0,43.69,133.91Z" fill="#202020"/><path d="M54.62,136.16H53.24V131.5a7,7,0,0,0-.07-1.05,1.89,1.89,0,0,0-.24-.78,1.12,1.12,0,0,0-.53-.45,2.23,2.23,0,0,0-.89-.15,2.92,2.92,0,0,0-1.18.27,6.84,6.84,0,0,0-1.18.71v6.11H47.78V124.77h1.37v4.12a5.67,5.67,0,0,1,1.33-.84,3.55,3.55,0,0,1,1.42-.3,2.54,2.54,0,0,1,2,.8,3.42,3.42,0,0,1,.7,2.3Z" fill="#202020"/><path d="M61.52,136.09c-.26.07-.55.12-.85.17a6.46,6.46,0,0,1-.82.06,2.52,2.52,0,0,1-1.9-.67,3,3,0,0,1-.65-2.16v-4.35h-.93V128h.93v-2.35h1.37V128h2.85v1.16H58.67v3.73c0,.43,0,.76,0,1a1.59,1.59,0,0,0,.21.68.92.92,0,0,0,.44.43,2.1,2.1,0,0,0,.86.14,2.88,2.88,0,0,0,.7-.1,4.21,4.21,0,0,0,.53-.17h.08Z" fill="#202020"/><path d="M91,251.82a5.55,5.55,0,0,1-.29,1.84,4,4,0,0,1-.78,1.38,3.69,3.69,0,0,1-1.14.87,3.27,3.27,0,0,1-1.37.29,4,4,0,0,1-1.22-.17,6,6,0,0,1-1-.44l-.09.38H83.78v-11.4h1.38v4.08a5.32,5.32,0,0,1,1.23-.78,3.29,3.29,0,0,1,1.46-.31,2.71,2.71,0,0,1,2.29,1.11A5.15,5.15,0,0,1,91,251.82Zm-1.42,0a4.21,4.21,0,0,0-.48-2.22,1.73,1.73,0,0,0-1.57-.76,3.14,3.14,0,0,0-1.21.26,5.42,5.42,0,0,0-1.14.67v4.69a5.79,5.79,0,0,0,1,.37,4.57,4.57,0,0,0,1,.1,2.24,2.24,0,0,0,1.79-.75A3.58,3.58,0,0,0,89.56,251.85Z" fill="#202020"/><path d="M99.48,256H98.11v-.87l-.49.35a3.51,3.51,0,0,1-.61.35,3.64,3.64,0,0,1-.79.28,4,4,0,0,1-1,.12,2.62,2.62,0,0,1-1.88-.74,2.46,2.46,0,0,1-.77-1.86,2.67,2.67,0,0,1,.4-1.51,2.73,2.73,0,0,1,1.14-.9,6.25,6.25,0,0,1,1.79-.45q1-.12,2.25-.18v-.21a1.6,1.6,0,0,0-.16-.77,1.23,1.23,0,0,0-.47-.49,1.85,1.85,0,0,0-.71-.22,5.87,5.87,0,0,0-.85-.06,5.42,5.42,0,0,0-1.21.14,8.58,8.58,0,0,0-1.38.41h-.07V248c.27-.07.65-.15,1.16-.24a8.61,8.61,0,0,1,1.5-.13,7.39,7.39,0,0,1,1.51.14,3,3,0,0,1,1.11.49,2.2,2.2,0,0,1,.7.87,3.26,3.26,0,0,1,.24,1.33Zm-1.37-2v-2.28c-.42,0-.91.06-1.48.11a8,8,0,0,0-1.35.21,2.21,2.21,0,0,0-1,.52,1.34,1.34,0,0,0-.37,1,1.29,1.29,0,0,0,.43,1.06,2,2,0,0,0,1.29.36,3.05,3.05,0,0,0,1.33-.29A5.65,5.65,0,0,0,98.11,254Z" fill="#202020"/><path d="M108,253.61a2.22,2.22,0,0,1-.93,1.84,4,4,0,0,1-2.53.72,5.8,5.8,0,0,1-1.66-.22,7,7,0,0,1-1.27-.47v-1.55h.07a5.33,5.33,0,0,0,1.45.78,4.31,4.31,0,0,0,1.53.29,2.84,2.84,0,0,0,1.42-.29,1,1,0,0,0,.51-.92.93.93,0,0,0-.28-.74,2.59,2.59,0,0,0-1.07-.42l-.76-.15c-.32-.06-.6-.13-.86-.19a2.85,2.85,0,0,1-1.53-.84,2.08,2.08,0,0,1-.45-1.36,2.17,2.17,0,0,1,.21-1,2.28,2.28,0,0,1,.63-.8,3.26,3.26,0,0,1,1.05-.55,4.75,4.75,0,0,1,1.41-.2,6.39,6.39,0,0,1,1.49.18,5.82,5.82,0,0,1,1.25.44v1.47h-.08a5,5,0,0,0-1.28-.66,4.32,4.32,0,0,0-1.48-.26,2.59,2.59,0,0,0-1.27.28.94.94,0,0,0-.52.87.93.93,0,0,0,.31.76,2.42,2.42,0,0,0,1,.41l.85.18.79.16a2.93,2.93,0,0,1,1.48.76A2,2,0,0,1,108,253.61Z" fill="#202020"/><path d="M116.8,252h-6a3.54,3.54,0,0,0,.23,1.32,2.53,2.53,0,0,0,.62.92,2.37,2.37,0,0,0,.9.52,3.57,3.57,0,0,0,1.16.18,4.64,4.64,0,0,0,1.68-.33,4.22,4.22,0,0,0,1.2-.66h.08v1.5a10.85,10.85,0,0,1-1.42.49,5.94,5.94,0,0,1-1.53.2,4.44,4.44,0,0,1-3.18-1.1,4.16,4.16,0,0,1-1.14-3.13,4.51,4.51,0,0,1,1.1-3.19,3.77,3.77,0,0,1,2.88-1.18,3.29,3.29,0,0,1,2.55,1,3.88,3.88,0,0,1,.9,2.75ZM115.46,251a2.48,2.48,0,0,0-.55-1.68,2.08,2.08,0,0,0-1.64-.59,2.38,2.38,0,0,0-1.76.65,2.55,2.55,0,0,0-.74,1.62Z" fill="#202020"/><path d="M119,4.77,115.71,13h-1.39L111,4.77h1.5l2.53,6.51,2.51-6.51Z" fill="#202020"/><path d="M127.54,9h-6a3.51,3.51,0,0,0,.22,1.32,2.55,2.55,0,0,0,.63.92,2.52,2.52,0,0,0,.9.53,3.87,3.87,0,0,0,1.16.17,4.64,4.64,0,0,0,1.68-.33,4,4,0,0,0,1.2-.66h.07v1.5A11.36,11.36,0,0,1,126,13a5.81,5.81,0,0,1-1.52.19,4.36,4.36,0,0,1-3.18-1.1,4.15,4.15,0,0,1-1.14-3.13,4.51,4.51,0,0,1,1.09-3.19,3.77,3.77,0,0,1,2.89-1.18,3.33,3.33,0,0,1,2.55,1,3.89,3.89,0,0,1,.9,2.75ZM126.2,8a2.48,2.48,0,0,0-.55-1.68A2.13,2.13,0,0,0,124,5.68a2.4,2.4,0,0,0-1.76.65A2.55,2.55,0,0,0,121.51,8Z" fill="#202020"/><path d="M134.73,6.27h-.08a4.28,4.28,0,0,0-.59-.1,6.6,6.6,0,0,0-.69,0,2.84,2.84,0,0,0-1.23.29,5.86,5.86,0,0,0-1.14.72V13h-1.38V4.77H131V6a6.6,6.6,0,0,1,1.45-.93,3,3,0,0,1,1.27-.28l.52,0,.49.07Z" fill="#202020"/><path d="M140.27,12.88c-.26.07-.54.12-.84.17a6.46,6.46,0,0,1-.82.06,2.5,2.5,0,0,1-1.9-.67,3,3,0,0,1-.66-2.16V5.93h-.93V4.77h.93V2.42h1.38V4.77h2.84V5.93h-2.84V9.66c0,.43,0,.76,0,1a1.59,1.59,0,0,0,.21.68.92.92,0,0,0,.44.43,2.06,2.06,0,0,0,.86.14,3,3,0,0,0,.7-.1,4.21,4.21,0,0,0,.53-.17h.07Z" fill="#202020"/><path d="M148.78,9h-6a3.5,3.5,0,0,0,.23,1.32,2.53,2.53,0,0,0,.62.92,2.66,2.66,0,0,0,.91.53,3.8,3.8,0,0,0,1.15.17,4.57,4.57,0,0,0,1.68-.33,3.94,3.94,0,0,0,1.21-.66h.07v1.5a12,12,0,0,1-1.42.5,5.81,5.81,0,0,1-1.52.19A4.36,4.36,0,0,1,142.5,12a4.15,4.15,0,0,1-1.14-3.13,4.51,4.51,0,0,1,1.09-3.19,3.77,3.77,0,0,1,2.88-1.18,3.3,3.3,0,0,1,2.55,1,3.89,3.89,0,0,1,.9,2.75Zm-1.34-1a2.47,2.47,0,0,0-.54-1.68,2.13,2.13,0,0,0-1.64-.59,2.39,2.39,0,0,0-1.76.65A2.56,2.56,0,0,0,142.75,8Z" fill="#202020"/><path d="M158,13h-1.73l-2.33-3.14L151.56,13H150l3.2-4.08L150,4.77h1.74L154,7.86l2.31-3.09H158l-3.21,4Z" fill="#202020"/><path d="M227.06,121.45a2.22,2.22,0,0,1-.93,1.84,4,4,0,0,1-2.53.72,6.25,6.25,0,0,1-1.67-.22,7.28,7.28,0,0,1-1.27-.47v-1.55h.08a5.18,5.18,0,0,0,1.45.78,4.54,4.54,0,0,0,1.53.29,3,3,0,0,0,1.42-.29,1,1,0,0,0,.51-.93.92.92,0,0,0-.28-.73,2.46,2.46,0,0,0-1.07-.42c-.19,0-.45-.1-.76-.16a7.45,7.45,0,0,1-.86-.19,2.91,2.91,0,0,1-1.53-.83,2.1,2.1,0,0,1-.45-1.36,2.24,2.24,0,0,1,.21-1,2.34,2.34,0,0,1,.63-.79,2.9,2.9,0,0,1,1.05-.55,4.75,4.75,0,0,1,1.41-.2,6.45,6.45,0,0,1,1.49.18,5.56,5.56,0,0,1,1.24.43v1.48h-.07a5,5,0,0,0-1.28-.66,4.38,4.38,0,0,0-1.48-.27,2.59,2.59,0,0,0-1.27.29.94.94,0,0,0-.53.86.92.92,0,0,0,.32.76,2.41,2.41,0,0,0,1,.42l.85.18.79.16a3,3,0,0,1,1.48.75A2,2,0,0,1,227.06,121.45Z" fill="#202020"/><path d="M230.42,123.81H229v-11.4h1.38Z" fill="#202020"/><path d="M239.5,123.81h-1.37v-.87l-.49.34a3.59,3.59,0,0,1-.61.36,3.84,3.84,0,0,1-.79.28,4.13,4.13,0,0,1-1.05.11,2.6,2.6,0,0,1-1.87-.73,2.44,2.44,0,0,1-.77-1.87,2.54,2.54,0,0,1,.4-1.5,2.63,2.63,0,0,1,1.14-.91,6.51,6.51,0,0,1,1.79-.44q1.05-.12,2.25-.18v-.21a1.55,1.55,0,0,0-.17-.78,1.14,1.14,0,0,0-.47-.48,2,2,0,0,0-.7-.23,5.9,5.9,0,0,0-.86-.06,5.62,5.62,0,0,0-1.21.15,8.79,8.79,0,0,0-1.37.41h-.08v-1.4q.4-.1,1.17-.24a8.61,8.61,0,0,1,1.5-.13,7.39,7.39,0,0,1,1.51.14,3,3,0,0,1,1.1.49,2.09,2.09,0,0,1,.71.87,3.26,3.26,0,0,1,.24,1.33Zm-1.37-2v-2.27c-.42,0-.91.06-1.48.11a7.38,7.38,0,0,0-1.36.21,2.13,2.13,0,0,0-.95.52,1.28,1.28,0,0,0-.37,1,1.31,1.31,0,0,0,.42,1.06,2.06,2.06,0,0,0,1.3.35,3.08,3.08,0,0,0,1.33-.28A5.69,5.69,0,0,0,238.13,121.79Z" fill="#202020"/><path d="M249,123.81h-1.37v-4.66a8.7,8.7,0,0,0-.07-1.06,1.79,1.79,0,0,0-.24-.77,1.09,1.09,0,0,0-.53-.46,2.26,2.26,0,0,0-.89-.15,2.78,2.78,0,0,0-1.18.28,5.52,5.52,0,0,0-1.18.71v6.11h-1.38v-8.18h1.38v.9a5.75,5.75,0,0,1,1.33-.83,3.52,3.52,0,0,1,1.42-.3,2.56,2.56,0,0,1,2,.8,3.42,3.42,0,0,1,.69,2.3Z" fill="#202020"/><path d="M255.89,123.73a6.56,6.56,0,0,1-.84.17,5.13,5.13,0,0,1-.82.07,2.5,2.5,0,0,1-1.9-.68,3,3,0,0,1-.66-2.16v-4.35h-.93v-1.15h.93v-2.35h1.38v2.35h2.84v1.15h-2.84v3.73c0,.43,0,.77,0,1a1.64,1.64,0,0,0,.21.68.94.94,0,0,0,.44.42,1.91,1.91,0,0,0,.86.14,2.52,2.52,0,0,0,.7-.1,4.63,4.63,0,0,0,.53-.16h.07Z" fill="#202020"/><path d="M269.67,123.81h-1.38v-4.66a8.78,8.78,0,0,0-.06-1.06,1.93,1.93,0,0,0-.25-.77,1.06,1.06,0,0,0-.52-.46,2.28,2.28,0,0,0-.9-.15,2.82,2.82,0,0,0-1.18.28,5.46,5.46,0,0,0-1.17.71v6.11h-1.38v-11.4h1.38v4.12a5.54,5.54,0,0,1,1.33-.83,3.5,3.5,0,0,1,1.41-.3,2.53,2.53,0,0,1,2,.8,3.37,3.37,0,0,1,.7,2.3Z" fill="#202020"/><path d="M279.17,119.86h-6a3.48,3.48,0,0,0,.23,1.31,2.45,2.45,0,0,0,.62.92,2.39,2.39,0,0,0,.9.53,3.57,3.57,0,0,0,1.16.18,4.42,4.42,0,0,0,1.68-.34,4.24,4.24,0,0,0,1.2-.65H279v1.5a12.55,12.55,0,0,1-1.42.49,5.94,5.94,0,0,1-1.53.2,4.44,4.44,0,0,1-3.18-1.1,4.17,4.17,0,0,1-1.14-3.14,4.49,4.49,0,0,1,1.1-3.18,3.73,3.73,0,0,1,2.88-1.18,3.29,3.29,0,0,1,2.55,1,3.87,3.87,0,0,1,.9,2.74Zm-1.34-1a2.44,2.44,0,0,0-.55-1.68,2.09,2.09,0,0,0-1.64-.6,2.38,2.38,0,0,0-1.76.66,2.55,2.55,0,0,0-.74,1.62Z" fill="#202020"/><path d="M282.73,114.26h-1.55v-1.43h1.55Zm-.08,9.55h-1.38v-8.18h1.38Z" fill="#202020"/><path d="M292,122.88a4.25,4.25,0,0,1-.95,3.05,3.88,3.88,0,0,1-2.9,1,7.71,7.71,0,0,1-1.28-.1,8.13,8.13,0,0,1-1.21-.26v-1.4h.07a10.31,10.31,0,0,0,1.07.32,5.59,5.59,0,0,0,1.46.2,3.53,3.53,0,0,0,1.17-.17,1.67,1.67,0,0,0,.71-.47,1.54,1.54,0,0,0,.37-.69,3.58,3.58,0,0,0,.11-.9v-.75a5.38,5.38,0,0,1-1.19.75,3.75,3.75,0,0,1-1.45.24,2.82,2.82,0,0,1-2.32-1.06,4.56,4.56,0,0,1-.86-3,5.22,5.22,0,0,1,.29-1.82,4.19,4.19,0,0,1,.81-1.32,3.28,3.28,0,0,1,1.16-.81,3.5,3.5,0,0,1,1.36-.29,4.46,4.46,0,0,1,1.19.14,5.34,5.34,0,0,1,1,.44l.09-.35H292Zm-1.38-1.32V117.1a5.24,5.24,0,0,0-1-.36,4.36,4.36,0,0,0-.94-.1,2.22,2.22,0,0,0-1.79.76,3.33,3.33,0,0,0-.65,2.21,3.76,3.76,0,0,0,.48,2.09,1.81,1.81,0,0,0,1.61.71,3.4,3.4,0,0,0,1.2-.23A4.64,4.64,0,0,0,290.63,121.56Z" fill="#202020"/><path d="M301.56,123.81h-1.38v-4.66a8.78,8.78,0,0,0-.06-1.06,1.93,1.93,0,0,0-.25-.77,1.06,1.06,0,0,0-.52-.46,2.28,2.28,0,0,0-.9-.15,2.82,2.82,0,0,0-1.18.28,5.78,5.78,0,0,0-1.18.71v6.11h-1.37v-11.4h1.37v4.12a5.8,5.8,0,0,1,1.34-.83,3.5,3.5,0,0,1,1.41-.3,2.54,2.54,0,0,1,2,.8,3.37,3.37,0,0,1,.7,2.3Z" fill="#202020"/><path d="M308.46,123.73a6.38,6.38,0,0,1-.85.17,5,5,0,0,1-.82.07,2.54,2.54,0,0,1-1.9-.68,3,3,0,0,1-.65-2.16v-4.35h-.93v-1.15h.93v-2.35h1.38v2.35h2.84v1.15h-2.84v3.73c0,.43,0,.77,0,1a1.49,1.49,0,0,0,.2.68,1,1,0,0,0,.44.42,1.94,1.94,0,0,0,.86.14,2.59,2.59,0,0,0,.71-.1,4.31,4.31,0,0,0,.52-.16h.08Z" fill="#202020"/><line x1="57.4" y1="218.78" x2="133.93" y2="19.74" fill="none" stroke="#03a6a0" stroke-linecap="round" stroke-miterlimit="10" stroke-width="2" stroke-dasharray="3 5"/><polyline points="135.64 232.39 149.64 232.39 149.64 246.39" fill="none" stroke="#e84846" stroke-miterlimit="10" stroke-width="2"/><path d="M1.08,274.31,133.81,19a1,1,0,0,1,1.8-.08l132.45,199.2a1,1,0,0,1-.17,1.18l-56.1,56.09a1,1,0,0,1-.7.3H2A1,1,0,0,1,1.08,274.31Z" fill="none" stroke="#03a6a0" stroke-miterlimit="10" stroke-width="2"/><line x1="135.61" y1="18.93" x2="239.8" y2="247.39" fill="none" stroke="#545454" stroke-miterlimit="10"/><line x1="128.93" y1="131.77" x2="65.77" y2="131.77" fill="none" stroke="#545454" stroke-miterlimit="10" stroke-width="2"/><line x1="134.62" y1="18.41" x2="211.5" y2="275.7" fill="none" stroke="#03a6a0" stroke-miterlimit="10" stroke-width="2"/><line x1="234.51" y1="252.68" x2="252.62" y2="234.57" fill="none" stroke="#03a6a0" stroke-miterlimit="10" stroke-width="2"/><line x1="135.61" y1="18.93" x2="143.17" y2="30.3" fill="none" stroke="#03a6a0" stroke-miterlimit="10" stroke-width="2"/><path d="M189.2,132.74a.5.5,0,0,1-.38-.81l4.41-5.61a.5.5,0,0,1,.84.1l2.73,5.77a.5.5,0,0,1-.46.71Z" fill="#545454"/><path d="M194.25,128.76,216.4,118.3l.85,1.8L195.1,130.56Z" fill="#545454" fill-rule="evenodd"/><path d="M132.28,131.33a.5.5,0,0,1,0,.89l-6.39,3.19a.49.49,0,0,1-.72-.44v-6.39a.49.49,0,0,1,.72-.44Z" fill="#545454"/></svg>